HIERARCHY
ROOT Hips
{
    OFFSET 0.000000 0.000000 0.000000
    CHANNELS 6 Xposition Yposition Zposition Zrotation Xrotation Yrotation
    JOINT Spine
    {
        OFFSET -0.000000 7.305680 0.000000
        CHANNELS 3 Zrotation Xrotation Yrotation
        JOINT Spine1
        {
            OFFSET -0.000000 20.356600 0.000000
            CHANNELS 3 Zrotation Xrotation Yrotation
            JOINT Neck
            {
                OFFSET -0.000000 22.138500 0.000000
                CHANNELS 3 Zrotation Xrotation Yrotation
                JOINT Head
                {
                    OFFSET -0.000000 13.809501 1.781870
                    CHANNELS 3 Zrotation Xrotation Yrotation
                    End Site
                    {
                        OFFSET -0.000000 17.818779 0.000000
                    }
                }
            }
            JOINT LeftShoulder
            {
                OFFSET 3.599130 17.990000 0.023591
                CHANNELS 3 Zrotation Xrotation Yrotation
                JOINT LeftArm
                {
                    OFFSET 12.560999 0.000000 0.000000
                    CHANNELS 3 Zrotation Xrotation Yrotation
                    JOINT LeftForeArm
                    {
                        OFFSET 22.903299 0.000000 0.000000
                        CHANNELS 3 Zrotation Xrotation Yrotation
                        JOINT LeftHand
                        {
                            OFFSET 21.865299 0.000000 0.000000
                            CHANNELS 3 Zrotation Xrotation Yrotation
                            JOINT LeftHandThumb1
                            {
                                OFFSET 1.853710 -2.106480 2.949080
                                CHANNELS 3 Zrotation Xrotation Yrotation
                                JOINT LeftHandThumb2
                                {
                                    OFFSET 2.049150 0.000000 1.336400
                                    CHANNELS 3 Zrotation Xrotation Yrotation
                                    JOINT LeftHandThumb3
                                    {
                                        OFFSET 2.672810 0.000000 0.000000
                                        CHANNELS 3 Zrotation Xrotation Yrotation
                                        End Site
                                        {
                                            OFFSET 2.381310 0.000000 0.000000
                                        }
                                    }
                                }
                            }
                            JOINT LeftHandIndex1
                            {
                                OFFSET 7.583340 0.000000 2.949080
                                CHANNELS 3 Zrotation Xrotation Yrotation
                                JOINT LeftHandIndex2
                                {
                                    OFFSET 4.454680 0.000000 0.000000
                                    CHANNELS 3 Zrotation Xrotation Yrotation
                                    JOINT LeftHandIndex3
                                    {
                                        OFFSET 2.227340 0.000000 0.000000
                                        CHANNELS 3 Zrotation Xrotation Yrotation
                                        End Site
                                        {
                                            OFFSET 1.984424 0.000000 0.000000
                                        }
                                    }
                                }
                            }
                            JOINT LeftHandMiddle1
                            {
                                OFFSET 7.583340 0.000000 0.977409
                                CHANNELS 3 Zrotation Xrotation Yrotation
                                JOINT LeftHandMiddle2
                                {
                                    OFFSET 4.900150 0.000000 0.000000
                                    CHANNELS 3 Zrotation Xrotation Yrotation
                                    JOINT LeftHandMiddle3
                                    {
                                        OFFSET 2.672810 0.000000 0.000000
                                        CHANNELS 3 Zrotation Xrotation Yrotation
                                        End Site
                                        {
                                            OFFSET 2.381310 0.000000 0.000000
                                        }
                                    }
                                }
                            }
                            JOINT LeftHandRing1
                            {
                                OFFSET 7.162050 0.000000 -0.977409
                                CHANNELS 3 Zrotation Xrotation Yrotation
                                JOINT LeftHandRing2
                                {
                                    OFFSET 4.454680 0.000000 0.000000
                                    CHANNELS 3 Zrotation Xrotation Yrotation
                                    JOINT LeftHandRing3
                                    {
                                        OFFSET 2.227340 0.000000 0.000000
                                        CHANNELS 3 Zrotation Xrotation Yrotation
                                        End Site
                                        {
                                            OFFSET 1.984424 0.000000 0.000000
                                        }
                                    }
                                }
                            }
                            JOINT LeftHandPinky1
                            {
                                OFFSET 6.740750 0.000000 -2.949080
                                CHANNELS 3 Zrotation Xrotation Yrotation
                                JOINT LeftHandPinky2
                                {
                                    OFFSET 3.563750 0.000000 0.000000
                                    CHANNELS 3 Zrotation Xrotation Yrotation
                                    JOINT LeftHandPinky3
                                    {
                                        OFFSET 1.781870 0.000000 0.000000
                                        CHANNELS 3 Zrotation Xrotation Yrotation
                                        End Site
                                        {
                                            OFFSET 1.587538 0.000000 0.000000
                                        }
                                    }
                                }
                            }
                        }
                    }
                }
            }
            JOINT RightShoulder
            {
                OFFSET -3.506990 17.990000 0.023591
                CHANNELS 3 Zrotation Xrotation Yrotation
                JOINT RightArm
                {
                    OFFSET -12.560999 0.000000 0.000000
                    CHANNELS 3 Zrotation Xrotation Yrotation
                    JOINT RightForeArm
                    {
                        OFFSET -22.903299 0.000000 0.000000
                        CHANNELS 3 Zrotation Xrotation Yrotation
                        JOINT RightHand
                        {
                            OFFSET -21.865299 0.000000 0.000000
                            CHANNELS 3 Zrotation Xrotation Yrotation
                            JOINT RightHandThumb1
                            {
                                OFFSET -1.853710 -2.106480 2.949080
                                CHANNELS 3 Zrotation Xrotation Yrotation
                                JOINT RightHandThumb2
                                {
                                    OFFSET -2.049150 0.000000 1.336400
                                    CHANNELS 3 Zrotation Xrotation Yrotation
                                    JOINT RightHandThumb3
                                    {
                                        OFFSET -2.672810 0.000000 0.000000
                                        CHANNELS 3 Zrotation Xrotation Yrotation
                                        End Site
                                        {
                                            OFFSET -2.381310 0.000000 0.000000
                                        }
                                    }
                                }
                            }
                            JOINT RightHandIndex1
                            {
                                OFFSET -7.583340 0.000000 2.949080
                                CHANNELS 3 Zrotation Xrotation Yrotation
                                JOINT RightHandIndex2
                                {
                                    OFFSET -4.454680 0.000000 0.000000
                                    CHANNELS 3 Zrotation Xrotation Yrotation
                                    JOINT RightHandIndex3
                                    {
                                        OFFSET -2.227340 0.000000 0.000000
                                        CHANNELS 3 Zrotation Xrotation Yrotation
                                        End Site
                                        {
                                            OFFSET -1.984424 0.000000 0.000000
                                        }
                                    }
                                }
                            }
                            JOINT RightHandMiddle1
                            {
                                OFFSET -7.583340 0.000000 0.977409
                                CHANNELS 3 Zrotation Xrotation Yrotation
                                JOINT RightHandMiddle2
                                {
                                    OFFSET -4.900150 0.000000 0.000000
                                    CHANNELS 3 Zrotation Xrotation Yrotation
                                    JOINT RightHandMiddle3
                                    {
                                        OFFSET -2.672810 0.000000 0.000000
                                        CHANNELS 3 Zrotation Xrotation Yrotation
                                        End Site
                                        {
                                            OFFSET -2.381310 0.000000 0.000000
                                        }
                                    }
                                }
                            }
                            JOINT RightHandRing1
                            {
                                OFFSET -7.162050 0.000000 -0.977409
                                CHANNELS 3 Zrotation Xrotation Yrotation
                                JOINT RightHandRing2
                                {
                                    OFFSET -4.454680 0.000000 0.000000
                                    CHANNELS 3 Zrotation Xrotation Yrotation
                                    JOINT RightHandRing3
                                    {
                                        OFFSET -2.227340 0.000000 0.000000
                                        CHANNELS 3 Zrotation Xrotation Yrotation
                                        End Site
                                        {
                                            OFFSET -1.984424 0.000000 0.000000
                                        }
                                    }
                                }
                            }
                            JOINT RightHandPinky1
                            {
                                OFFSET -6.740750 0.000000 -2.949080
                                CHANNELS 3 Zrotation Xrotation Yrotation
                                JOINT RightHandPinky2
                                {
                                    OFFSET -3.563750 0.000000 0.000000
                                    CHANNELS 3 Zrotation Xrotation Yrotation
                                    JOINT RightHandPinky3
                                    {
                                        OFFSET -1.781870 0.000000 0.000000
                                        CHANNELS 3 Zrotation Xrotation Yrotation
                                        End Site
                                        {
                                            OFFSET -1.587538 0.000000 0.000000
                                        }
                                    }
                                }
                            }
                        }
                    }
                }
            }
        }
    }
    JOINT LeftUpLeg
    {
        OFFSET 8.909360 0.000000 0.000000
        CHANNELS 3 Zrotation Xrotation Yrotation
        JOINT LeftLeg
        {
            OFFSET -0.000000 -38.765602 0.000000
            CHANNELS 3 Zrotation Xrotation Yrotation
            JOINT LeftFoot
            {
                OFFSET -0.000000 -35.245003 0.000000
                CHANNELS 3 Zrotation Xrotation Yrotation
                JOINT LeftToeBase
                {
                    OFFSET -0.000000 -5.791090 13.364000
                    CHANNELS 3 Zrotation Xrotation Yrotation
                    End Site
                    {
                        OFFSET -0.000000 0.000000 3.563756
                    }
                }
            }
        }
    }
    JOINT RightUpLeg
    {
        OFFSET -8.909360 0.000000 0.000000
        CHANNELS 3 Zrotation Xrotation Yrotation
        JOINT RightLeg
        {
            OFFSET -0.000000 -38.765602 0.000000
            CHANNELS 3 Zrotation Xrotation Yrotation
            JOINT RightFoot
            {
                OFFSET -0.000000 -35.245003 0.000000
                CHANNELS 3 Zrotation Xrotation Yrotation
                JOINT RightToeBase
                {
                    OFFSET -0.000000 -5.791090 13.364000
                    CHANNELS 3 Zrotation Xrotation Yrotation
                    End Site
                    {
                        OFFSET -0.000000 0.000000 3.563756
                    }
                }
            }
        }
    }
}
MOTION
Frames:    5
Frame Time:    0.033333
-7.215377    80.512115    111.427605    1.908763    -6.508427    -3.484601    -0.237021    5.942091    4.440593    -6.552409    7.526586    1.909264    2.882288    7.968234    -0.149541    8.081798    -18.555599    0.716340    32.995125    -0.580693    -5.246377    22.567636    6.544293    -16.285295    40.451077    -31.449686    -63.768410    -63.868290    -31.854689    -13.405354    -0.567841    3.259728    3.307773    -0.000000    0.000000    7.114807    -0.000000    0.000000    14.229612    -33.159832    0.000000    0.000000    -66.319664    0.000000    0.000000    -33.159832    0.000000    0.000000    -50.402752    -12.830899    4.745563    -80.734161    0.000000    0.000000    -48.617081    0.000000    0.000000    -67.936424    -26.480827    5.463264    -95.148705    0.000000    0.000000    -64.074341    0.000000    0.000000    -88.874466    -39.994556    0.723452    -110.000000    0.000000    0.000000    -80.000000    0.000000    0.000000    -34.306950    3.703660    -7.009912    -25.568878    3.941393    29.756062    -36.796963    -27.844833    50.726727    68.894859    -26.890179    29.968473    -0.468436    0.174233    -0.572591    0.000000    0.000000    -2.779650    0.000000    0.000000    -5.559300    10.843460    0.000000    -0.000000    21.686918    0.000000    -0.000000    10.843460    0.000000    -0.000000    25.077602    -1.577370    -1.907062    50.243111    0.000000    -0.000000    25.121553    0.000000    -0.000000    39.272247    -3.574665    -3.369737    78.799309    0.000000    -0.000000    39.399651    0.000000    -0.000000    53.886154    -5.941890    -4.319134    108.220833    0.000000    -0.000000    54.110413    0.000000    -0.000000    0.937458    -21.156431    3.239255    -2.618727    41.308319    18.622692    -5.300153    1.801326    -17.155823    0.455902    -3.688357    -1.695307    1.739523    -1.953128    6.221857    2.166352    27.379734    -8.010678    -1.458776    -18.694315    3.221241    -0.298146    -0.933389    0.377166    
-7.175043    79.987434    111.637817    1.905989    -6.502328    -2.996637    -0.766472    6.078879    4.276099    -5.683819    5.999934    1.710247    3.439619    10.781890    -0.275626    7.511985    -19.524202    0.831277    34.572117    -0.426868    -3.641473    26.983192    3.739497    -15.715193    42.804691    -24.730074    -44.192120    -47.145924    -32.158031    -0.544146    2.401004    1.990378    5.255097    -0.000000    0.000000    8.092543    -0.000000    0.000000    16.185087    -24.822908    0.000000    0.000000    -49.645813    0.000000    0.000000    -24.822908    0.000000    0.000000    -43.235722    -12.365791    6.034481    -69.562714    0.000000    0.000000    -43.031353    0.000000    0.000000    -61.674564    -25.987961    7.933578    -89.479584    0.000000    0.000000    -61.239788    0.000000    0.000000    -83.320473    -39.807961    4.287799    -110.000000    0.000000    0.000000    -80.000000    0.000000    0.000000    -33.723606    4.093048    -8.293692    -26.963188    -1.523742    27.988548    -36.406445    -26.342058    36.716839    54.463310    -31.173668    20.337070    -2.969798    -1.018661    -0.320560    0.000000    0.000000    -2.068343    0.000000    0.000000    -4.136685    8.477855    0.000000    -0.000000    16.955706    0.000000    -0.000000    8.477855    0.000000    -0.000000    21.920151    -2.024433    -2.817889    44.005997    0.000000    -0.000000    22.002998    0.000000    -0.000000    35.279797    -4.646711    -5.093327    71.056290    0.000000    -0.000000    35.528145    0.000000    -0.000000    49.001495    -7.820803    -6.745728    98.926277    0.000000    -0.000000    49.463139    0.000000    -0.000000    0.398475    -21.857845    1.403053    -4.211984    49.293106    19.267183    -4.124220    -1.406872    -14.953745    0.477768    -3.691954    -1.754012    1.686798    -3.291689    6.418863    2.990273    30.550800    -8.567511    -1.455144    -20.491659    2.786405    -0.310308    -0.872444    0.402486    
-7.076904    79.234329    111.800804    1.769987    -5.846542    -2.447306    -1.036040    6.564784    3.880433    -4.906005    3.628251    1.428489    3.702718    11.524302    -0.367288    7.008343    -18.641226    0.741274    34.954868    -1.730189    -3.409559    28.440594    -2.371155    -14.332319    40.656967    -21.374361    -28.696480    -26.324617    -33.231277    8.512941    5.336349    1.722369    8.231180    -0.000000    0.000000    10.365668    -0.000000    0.000000    20.731339    -13.830856    0.000000    0.000000    -27.661713    0.000000    0.000000    -13.830856    0.000000    0.000000    -33.134056    -11.339964    7.917211    -54.833355    0.000000    0.000000    -34.714001    0.000000    0.000000    -51.999531    -24.625116    11.857122    -82.004990    0.000000    0.000000    -55.597141    0.000000    0.000000    -73.371025    -38.799522    10.599833    -110.000000    0.000000    0.000000    -77.113106    0.000000    0.000000    -32.970066    2.807088    -8.973112    -24.662159    -8.941742    26.670210    -36.301395    -28.183365    26.203854    36.260979    -39.884319    12.307803    -5.205582    -1.365241    -1.174495    0.000000    0.000000    -2.567478    0.000000    0.000000    -5.134955    5.434370    0.000000    -0.000000    10.868741    0.000000    -0.000000    5.434370    0.000000    -0.000000    18.668440    -2.163127    -3.425290    37.555237    0.000000    -0.000000    18.777617    0.000000    -0.000000    31.788012    -5.049996    -6.272388    64.241714    0.000000    -0.000000    32.120865    0.000000    -0.000000    45.230419    -8.616749    -8.453654    91.736893    0.000000    -0.000000    45.868446    0.000000    -0.000000    -0.231557    -22.386375    -0.214894    -5.889791    55.625206    20.932772    -2.837602    -3.086738    -13.078576    0.497118    -3.796951    -1.823190    1.747133    -5.481489    6.755911    4.113951    34.141132    -9.812554    -1.364784    -22.532677    2.695480    -0.319285    -0.809519    0.422928    
-6.928499    78.291199    111.897980    1.697784    -4.626094    -2.007310    -1.372121    7.403671    3.307856    -4.233274    0.301119    1.082484    3.984347    10.799944    -0.367896    6.435273    -16.198051    0.616989    34.586441    -4.487011    -4.316428    27.796421    -11.643185    -12.760852    40.594517    -24.462229    -18.699621    -4.890081    -36.445942    18.684666    6.893333    2.179422    10.434702    -0.000000    0.000000    11.978992    -0.000000    0.000000    23.957981    -4.196333    0.000000    0.000000    -8.392666    0.000000    0.000000    -4.196333    0.000000    0.000000    -24.466677    -8.788263    8.216565    -41.923092    0.000000    0.000000    -25.713072    0.000000    0.000000    -44.163536    -19.842493    13.068436    -75.453514    0.000000    0.000000    -47.229805    0.000000    0.000000    -65.429382    -32.198475    13.692170    -110.000000    0.000000    0.000000    -69.398560    0.000000    0.000000    -32.084087    0.487345    -8.940788    -19.786398    -17.157869    26.599674    -40.632908    -33.802879    20.771355    12.010744    -49.210220    -3.969813    -4.649964    -0.420835    -2.205625    0.000000    0.000000    -3.382247    0.000000    0.000000    -6.764494    1.425189    0.000000    -0.000000    2.850379    0.000000    -0.000000    1.425189    0.000000    -0.000000    15.204034    -1.758479    -3.130559    30.576653    0.000000    -0.000000    15.288326    0.000000    -0.000000    28.894123    -4.209889    -5.757331    58.302925    0.000000    -0.000000    29.151464    0.000000    -0.000000    42.936626    -7.309180    -7.785967    86.869385    0.000000    -0.000000    43.434692    0.000000    -0.000000    -0.838976    -22.752882    -0.972606    -6.935960    59.740368    21.172262    -2.212100    -4.882594    -10.493423    0.484718    -5.007053    -2.000715    1.768344    -8.526703    7.335738    5.512514    38.223804    -11.148623    -1.424537    -24.764933    2.337330    -0.297177    -0.859178    0.383002    
-6.741860    77.196312    111.917534    1.745781    -3.091375    -1.717976    -1.842473    8.751861    2.524324    -3.618947    -4.152154    0.660663    4.167458    9.999516    -0.164469    5.958236    -13.553246    0.691109    33.854870    -8.107092    -5.630648    25.942101    -20.969872    -11.100102    47.423393    -31.841890    -15.940310    13.651470    -34.839455    30.578457    5.253132    2.576465    9.154179    -0.000000    0.000000    10.123410    -0.000000    0.000000    20.246819    -0.887352    0.000000    0.000000    -1.774704    0.000000    0.000000    -0.887352    0.000000    0.000000    -22.856562    -7.134080    6.781805    -37.489052    0.000000    0.000000    -23.711290    0.000000    0.000000    -44.492847    -16.268948    10.497138    -73.203392    0.000000    0.000000    -46.535217    0.000000    0.000000    -67.611214    -26.393328    10.377069    -110.000000    0.000000    0.000000    -70.050789    0.000000    0.000000    -31.146973    -2.029096    -8.259880    -14.271302    -23.556828    27.177992    -50.994678    -41.496964    19.175688    -13.270959    -51.161587    -24.830612    -1.444999    0.612780    -1.858466    0.000000    0.000000    -3.060819    0.000000    0.000000    -6.121637    -0.121947    0.000000    0.000000    0.000000    0.000000    0.000000    0.000000    0.000000    0.000000    14.149952    -1.043019    -1.906168    28.525333    0.000000    -0.000000    14.262667    0.000000    -0.000000    28.389669    -2.523303    -3.497491    57.050671    0.000000    -0.000000    28.525330    0.000000    -0.000000    43.038956    -4.408694    -4.706038    86.440399    0.000000    -0.000000    43.220200    0.000000    -0.000000    -1.359796    -22.618782    -0.796065    -6.635597    60.644859    20.391979    -2.444971    -8.892048    -8.753049    0.430824    -7.557411    -2.333121    1.744735    -12.049671    7.893938    6.874249    42.551437    -12.127242    -1.444282    -27.109827    1.704276    -0.267920    -0.922219    0.330379    
